<svg id="Space_Invaders" data-name="Space Invaders" xmlns="http://www.w3.org/2000/svg" viewBox="0 0 186.6 171.47"><defs><style>.cls-1{fill:#fff;}</style></defs><title>alien-05</title><path class="cls-1" d="M169.51,86V67.8h-16V33.62H136.17V17.37h16.25V0H134.77V17.09H118V33.62H68.08V16.81H51V0H33.34V17.37H49.87V33.62H33.72V67.8H16.53V86H0v51.55H17.09V103.11H33.9v34.46h16v17.09H67.81v16.81H85.18V154.1H68.08V137.29H51V121h84.9v16.25H118V154.1H101.43v17.37H118.8V154.66h17.37V137.57H153V103.11h16.53v34.46H186.6V86ZM67.24,86H51V51.83H67.24Zm68.37,0H119.36V51.83h16.25Z"/></svg>