<svg id="Space_Invaders" data-name="Space Invaders" xmlns="http://www.w3.org/2000/svg" viewBox="0 0 317.08 201.97"><defs><style>.cls-1{fill:#fff;}</style></defs><title>alien-06</title><path class="cls-1" d="M202.48,114.59H230.8V86.25H202.48Zm0-86.22H230.8V0H202.48Zm0,28.24H230.8V29.81H202.48Zm0,86.18H230.8V116.21H202.48Zm0,59.18H230.8V172.83H202.48ZM232.21,56.61H259V29.81h-26.8Zm-87.87,86.18h26.87V116.21H144.34Zm28.28-28.2h28.45V86.25H172.62Zm0,28.2h28.45V116.21H172.62Zm0-58h28.45V58.05H172.62Zm0-28.2h28.45V29.81H172.62Zm59.59,58H259V86.25h-26.8Zm56.55,28.2h28.32V116.21H288.76Zm-56.55-58H259V58.05h-26.8Zm56.55,29.78h28.32V86.25H288.76ZM232.21,172H259V144.41h-26.8Zm0-29.24H259V116.21h-26.8Zm-87.87-28.2h26.87V86.25H144.34Zm116.07,0h26.94V86.25H260.41Zm0-29.78h26.94V58.05H260.41ZM288.76,172h28.32V144.41H288.76ZM29.86,114.59h26.8V86.25H29.86Zm0-29.78h26.8V58.05H29.86Zm28.21,0h26.8V58.05H58.07Zm0,29.78h26.8V86.25H58.07Zm0-58h26.8V29.81H58.07Zm86.27,28.2h26.87V58.05H144.34Zm-86.27,58h26.8V116.21H58.07ZM0,114.59H28.46V86.25H0ZM0,172H28.46V144.41H0Zm0-29.24H28.46V116.21H0Zm116.14,0h26.8V116.21h-26.8Zm0-28.2h26.8V86.25h-26.8Zm0-58h26.8V29.81h-26.8Zm0,28.2h26.8V58.05h-26.8Zm28.2-55v26.8h26.87V29.81M86.27,28.37h28.46V0H86.27Zm0,28.24h28.46V29.81H86.27ZM58.07,172h26.8V144.41H58.07Zm28.2-57.44h28.46V86.25H86.27Zm0,87.38h28.46V172.83H86.27Zm0-59.18h28.46V116.21H86.27Z"/></svg>