<svg id="Space_Invaders" data-name="Space Invaders" xmlns="http://www.w3.org/2000/svg" viewBox="0 0 227.65 107.9"><defs><style>.cls-1{fill:#ec1c24;}</style></defs><title>alien-07</title><path class="cls-1" d="M210.46,53.36V38.53H199.2V24.9H183.78V10.67H157.11V0H72.33V10.67h-29V24.9H28.46V38.53H14.82V53.36H0V75.88H26.08V94.26h16V107.9h16V94.26H73.51V75.88h27.27V94.26h29.65V75.88h24.89V94.26h14.23V107.9h16V94.26h17.19V75.88h24.9V53.36ZM58.69,58.69H41.5V44.46H58.69Zm41.8,0H83.3V44.46h17.19Zm41.79,0H125.09V44.46h17.19Zm41.8,0H166.89V44.46h17.19Z"/></svg>